<svg width="465" height="236" viewBox="0 0 465 236" fill="none" xmlns="http://www.w3.org/2000/svg">
<path d="M248.291 196H241.447L240.416 191.031C235.666 195.531 230.759 197.75 225.697 197.688C221.322 197.688 217.791 195.906 215.103 192.344C212.666 189.031 211.478 185.125 211.541 180.625V148.469H219.041V180.25C219.041 187.375 221.884 190.938 227.572 190.938C230.259 190.938 233.134 189.812 236.197 187.562C239.259 185.312 240.791 182.875 240.791 180.25V148.469H248.291V196ZM302.309 196H295.934L294.809 191.969C289.622 195.469 285.184 197.219 281.497 197.219C275.559 197.219 270.841 194.5 267.341 189.062C264.341 184.375 262.841 178.906 262.841 172.656C262.841 165.469 264.434 159.562 267.622 154.938C271.309 149.562 276.591 146.875 283.466 146.875C287.966 146.875 291.747 148.719 294.809 152.406V129.062H302.309V196ZM294.809 159.531C292.997 157.094 291.341 155.469 289.841 154.656C288.341 153.844 286.091 153.438 283.091 153.438C278.778 153.438 275.653 155.531 273.716 159.719C272.153 162.844 271.372 166.812 271.372 171.625C271.372 176.438 272.278 180.5 274.091 183.812C276.278 188.062 279.559 190.188 283.934 190.188C287.809 190.188 291.434 188.719 294.809 185.781V159.531ZM366.922 196.844H361.109L348.641 161.312L335.984 196.844H329.891L315.734 150.062L323.047 148.094L333.734 186.062L345.547 148.75H352.297L364.578 185.875L374.609 148.094L381.641 150.062L366.922 196.844ZM399.659 138.25C398.159 138.25 396.909 137.75 395.909 136.75C394.972 135.688 394.503 134.406 394.503 132.906C394.503 131.406 394.972 130.188 395.909 129.25C396.909 128.25 398.159 127.75 399.659 127.75C401.159 127.75 402.378 128.25 403.316 129.25C404.253 130.25 404.722 131.469 404.722 132.906C404.722 134.406 404.253 135.688 403.316 136.75C402.378 137.75 401.159 138.25 399.659 138.25ZM395.253 196V148.469H403.034V196H395.253ZM464.272 157.75L454.053 157.469C455.053 159.656 455.553 161.781 455.553 163.844C455.553 168.656 453.928 172.656 450.678 175.844C446.991 179.406 442.428 181.188 436.991 181.188C433.866 181.188 431.772 180.812 430.709 180.062C428.209 181.625 426.959 183.344 426.959 185.219C426.959 186.969 428.178 188.094 430.616 188.594C431.741 188.844 434.866 188.969 439.991 188.969C446.553 188.969 451.022 189.438 453.397 190.375C457.647 192 459.772 195.469 459.772 200.781C459.772 206.281 456.897 210.625 451.147 213.812C446.209 216.562 440.803 217.938 434.928 217.938H434.647C430.584 217.938 427.116 217.094 424.241 215.406C420.803 213.281 419.084 210.344 419.084 206.594C419.084 202.406 421.303 198.25 425.741 194.125C424.303 193.625 422.928 192.531 421.616 190.844C420.303 189.094 419.647 187.5 419.647 186.062C419.647 184.312 420.428 182.656 421.991 181.094C424.553 178.531 425.866 177.219 425.928 177.156C421.991 173.781 419.959 169.344 419.834 163.844C419.834 159.031 421.678 154.875 425.366 151.375C428.803 148.188 433.053 146.625 438.116 146.688C441.053 146.75 443.866 147.469 446.553 148.844C448.928 150.094 450.678 151.594 451.803 153.344L464.272 151.469V157.75ZM448.897 163.656C448.897 160.656 447.803 158 445.616 155.688C443.491 153.562 440.866 152.5 437.741 152.5C434.553 152.5 431.959 153.688 429.959 156.062C428.022 158.438 427.053 161.156 427.053 164.219C427.053 167.281 428.022 169.938 429.959 172.188C431.897 174.375 434.366 175.469 437.366 175.469C440.866 175.469 443.741 174.312 445.991 172C447.928 169.938 448.897 167.156 448.897 163.656ZM452.366 201.062C452.366 196.875 448.709 194.812 441.397 194.875C438.522 194.875 435.366 194.969 431.928 195.156C430.303 195.219 428.866 196.375 427.616 198.625C426.491 200.625 425.928 202.469 425.928 204.156C425.928 206.781 427.209 208.844 429.772 210.344C431.897 211.469 434.334 212.031 437.084 212.031C440.709 212.031 444.053 211.125 447.116 209.312C450.616 207.188 452.366 204.438 452.366 201.062Z" fill="#FF8F00"/>
<path d="M104.5 54.5C100.651 46.3563 96.8347 43.9402 85.5 45.5V42H149.5V45.5C137.616 44.3489 133.355 46.2414 130 54.5V91C171.097 62.1208 194.653 57.0912 237.5 70.5C188.523 63.9722 164.067 73.8507 124 107.5C73.8901 148.023 46.71 159.61 1 146.5C39.8 149.375 62.1982 144.168 104.5 110V54.5Z" fill="#FF8F00" stroke="#FF8F00"/>
<path d="M191.5 163.5H187C185.514 178.729 181.912 183.027 170.5 183.5H141C133.729 182.918 129.942 181.839 129.5 163.5V125.5C140.541 108.458 153.001 103.238 177.5 95.5C149.923 100.338 138.925 105.715 125.5 119C101.944 143.929 88.2808 151.709 63.5 160C84.0926 157.987 92.9707 154.627 104.5 145L103.5 183.5C101.838 190.425 97.4586 192.34 87 192V196H177.5C187.192 196.963 190.049 193.645 190.5 180.5L191.5 163.5Z" fill="#FF8F00" stroke="#FF8F00"/>
<mask id="path-4-inside-1_112_2" fill="white">
<path d="M228.645 66.3332C216.085 40.0088 194.108 19.3534 167.056 8.44856C140.004 -2.45623 109.846 -2.81696 82.5408 7.43766C55.2358 17.6923 32.7706 37.8162 19.5847 63.8326C6.39877 89.849 3.45148 119.865 11.3252 147.949L17.2027 146.302C9.74152 119.689 12.5344 91.2454 25.0294 66.5921C37.5244 41.9389 58.8125 22.8694 84.6869 13.1521C110.561 3.43476 139.139 3.77659 164.774 14.11C190.409 24.4434 211.234 44.0167 223.136 68.9617L228.645 66.3332Z"/>
</mask>
<path d="M228.645 66.3332C216.085 40.0088 194.108 19.3534 167.056 8.44856C140.004 -2.45623 109.846 -2.81696 82.5408 7.43766C55.2358 17.6923 32.7706 37.8162 19.5847 63.8326C6.39877 89.849 3.45148 119.865 11.3252 147.949L17.2027 146.302C9.74152 119.689 12.5344 91.2454 25.0294 66.5921C37.5244 41.9389 58.8125 22.8694 84.6869 13.1521C110.561 3.43476 139.139 3.77659 164.774 14.11C190.409 24.4434 211.234 44.0167 223.136 68.9617L228.645 66.3332Z" fill="#FF8F00" stroke="#FF8F00" stroke-width="2" mask="url(#path-4-inside-1_112_2)"/>
<mask id="path-5-inside-2_112_2" fill="white">
<path d="M20.1473 171.295C33.1149 197.421 55.4108 217.733 82.629 228.216C109.847 238.698 140.008 238.59 167.15 227.912C194.292 217.234 216.442 196.764 229.222 170.545C242.001 144.327 244.482 114.269 236.172 86.3104L230.321 88.0494C238.195 114.543 235.845 143.026 223.735 167.871C211.624 192.715 190.635 212.114 164.915 222.232C139.195 232.35 110.615 232.453 84.8229 222.519C59.0308 212.586 37.9031 193.339 25.615 168.582L20.1473 171.295Z"/>
</mask>
<path d="M20.1473 171.295C33.1149 197.421 55.4108 217.733 82.629 228.216C109.847 238.698 140.008 238.59 167.15 227.912C194.292 217.234 216.442 196.764 229.222 170.545C242.001 144.327 244.482 114.269 236.172 86.3104L230.321 88.0494C238.195 114.543 235.845 143.026 223.735 167.871C211.624 192.715 190.635 212.114 164.915 222.232C139.195 232.35 110.615 232.453 84.8229 222.519C59.0308 212.586 37.9031 193.339 25.615 168.582L20.1473 171.295Z" fill="#FF8F00" stroke="#FF8F00" stroke-width="2" mask="url(#path-5-inside-2_112_2)"/>
</svg>
