<svg width="462" height="236" viewBox="0 0 462 236" fill="none" xmlns="http://www.w3.org/2000/svg">
<path d="M245.291 195H238.447L237.416 190.031C232.666 194.531 227.759 196.75 222.697 196.688C218.322 196.688 214.791 194.906 212.103 191.344C209.666 188.031 208.478 184.125 208.541 179.625V147.469H216.041V179.25C216.041 186.375 218.884 189.938 224.572 189.938C227.259 189.938 230.134 188.812 233.197 186.562C236.259 184.312 237.791 181.875 237.791 179.25V147.469H245.291V195ZM299.309 195H292.934L291.809 190.969C286.622 194.469 282.184 196.219 278.497 196.219C272.559 196.219 267.841 193.5 264.341 188.062C261.341 183.375 259.841 177.906 259.841 171.656C259.841 164.469 261.434 158.562 264.622 153.938C268.309 148.562 273.591 145.875 280.466 145.875C284.966 145.875 288.747 147.719 291.809 151.406V128.062H299.309V195ZM291.809 158.531C289.997 156.094 288.341 154.469 286.841 153.656C285.341 152.844 283.091 152.438 280.091 152.438C275.778 152.438 272.653 154.531 270.716 158.719C269.153 161.844 268.372 165.812 268.372 170.625C268.372 175.438 269.278 179.5 271.091 182.812C273.278 187.062 276.559 189.188 280.934 189.188C284.809 189.188 288.434 187.719 291.809 184.781V158.531ZM363.922 195.844H358.109L345.641 160.312L332.984 195.844H326.891L312.734 149.062L320.047 147.094L330.734 185.062L342.547 147.75H349.297L361.578 184.875L371.609 147.094L378.641 149.062L363.922 195.844ZM396.659 137.25C395.159 137.25 393.909 136.75 392.909 135.75C391.972 134.688 391.503 133.406 391.503 131.906C391.503 130.406 391.972 129.188 392.909 128.25C393.909 127.25 395.159 126.75 396.659 126.75C398.159 126.75 399.378 127.25 400.316 128.25C401.253 129.25 401.722 130.469 401.722 131.906C401.722 133.406 401.253 134.688 400.316 135.75C399.378 136.75 398.159 137.25 396.659 137.25ZM392.253 195V147.469H400.034V195H392.253ZM461.272 156.75L451.053 156.469C452.053 158.656 452.553 160.781 452.553 162.844C452.553 167.656 450.928 171.656 447.678 174.844C443.991 178.406 439.428 180.188 433.991 180.188C430.866 180.188 428.772 179.812 427.709 179.062C425.209 180.625 423.959 182.344 423.959 184.219C423.959 185.969 425.178 187.094 427.616 187.594C428.741 187.844 431.866 187.969 436.991 187.969C443.553 187.969 448.022 188.438 450.397 189.375C454.647 191 456.772 194.469 456.772 199.781C456.772 205.281 453.897 209.625 448.147 212.812C443.209 215.562 437.803 216.938 431.928 216.938H431.647C427.584 216.938 424.116 216.094 421.241 214.406C417.803 212.281 416.084 209.344 416.084 205.594C416.084 201.406 418.303 197.25 422.741 193.125C421.303 192.625 419.928 191.531 418.616 189.844C417.303 188.094 416.647 186.5 416.647 185.062C416.647 183.312 417.428 181.656 418.991 180.094C421.553 177.531 422.866 176.219 422.928 176.156C418.991 172.781 416.959 168.344 416.834 162.844C416.834 158.031 418.678 153.875 422.366 150.375C425.803 147.188 430.053 145.625 435.116 145.688C438.053 145.75 440.866 146.469 443.553 147.844C445.928 149.094 447.678 150.594 448.803 152.344L461.272 150.469V156.75ZM445.897 162.656C445.897 159.656 444.803 157 442.616 154.688C440.491 152.562 437.866 151.5 434.741 151.5C431.553 151.5 428.959 152.688 426.959 155.062C425.022 157.438 424.053 160.156 424.053 163.219C424.053 166.281 425.022 168.938 426.959 171.188C428.897 173.375 431.366 174.469 434.366 174.469C437.866 174.469 440.741 173.312 442.991 171C444.928 168.938 445.897 166.156 445.897 162.656ZM449.366 200.062C449.366 195.875 445.709 193.812 438.397 193.875C435.522 193.875 432.366 193.969 428.928 194.156C427.303 194.219 425.866 195.375 424.616 197.625C423.491 199.625 422.928 201.469 422.928 203.156C422.928 205.781 424.209 207.844 426.772 209.344C428.897 210.469 431.334 211.031 434.084 211.031C437.709 211.031 441.053 210.125 444.116 208.312C447.616 206.188 449.366 203.438 449.366 200.062Z" fill="#1D86DF"/>
<path d="M103.5 54.5C99.651 46.3563 95.8347 43.9402 84.5 45.5V42H148.5V45.5C136.616 44.3489 132.355 46.2414 129 54.5V91C170.097 62.1208 193.653 57.0912 236.5 70.5C187.523 63.9722 163.067 73.8507 123 107.5C72.8901 148.023 45.71 159.61 0 146.5C38.8 149.375 61.1982 144.168 103.5 110V54.5Z" fill="#1D86DF"/>
<path d="M190.5 163.5H186C184.514 178.729 180.912 183.027 169.5 183.5H140C132.729 182.918 128.942 181.839 128.5 163.5V125.5C139.541 108.458 152.001 103.238 176.5 95.5C148.923 100.338 137.925 105.715 124.5 119C100.944 143.929 87.2808 151.709 62.5 160C83.0926 157.987 91.9707 154.627 103.5 145L102.5 183.5C100.838 190.425 96.4586 192.34 86 192V196H176.5C186.192 196.963 189.049 193.645 189.5 180.5L190.5 163.5Z" fill="#1D86DF"/>
<path d="M227.645 66.3332C215.085 40.0088 193.108 19.3534 166.056 8.44856C139.004 -2.45623 108.846 -2.81696 81.5408 7.43766C54.2358 17.6923 31.7706 37.8162 18.5847 63.8326C5.39877 89.849 2.45148 119.865 10.3252 147.949L16.2027 146.302C8.74152 119.689 11.5344 91.2454 24.0294 66.5921C36.5244 41.9389 57.8125 22.8694 83.6869 13.1521C109.561 3.43476 138.139 3.77659 163.774 14.11C189.409 24.4434 210.234 44.0167 222.136 68.9617L227.645 66.3332Z" fill="#1D86DF"/>
<path d="M19.1473 171.295C32.1149 197.421 54.4108 217.733 81.629 228.216C108.847 238.698 139.008 238.59 166.15 227.912C193.292 217.234 215.442 196.764 228.222 170.545C241.001 144.327 243.482 114.269 235.172 86.3104L229.321 88.0494C237.195 114.543 234.845 143.026 222.735 167.871C210.624 192.715 189.635 212.114 163.915 222.232C138.195 232.35 109.615 232.453 83.8229 222.519C58.0308 212.586 36.9031 193.339 24.615 168.582L19.1473 171.295Z" fill="#1D86DF"/>
</svg>
